<svg width="37" height="25" viewBox="0 0 37 25" fill="none" xmlns="http://www.w3.org/2000/svg">
<path d="M0.455916 12.4772C0.736831 12.4617 0.935927 12.4409 1.13502 12.4409C4.0669 12.4396 6.99879 12.4396 9.93067 12.4448C11.0898 12.4461 11.4212 12.7193 11.608 13.7913C11.8275 15.0458 12.0416 16.3003 12.2721 17.5522C12.3989 18.2397 12.7439 18.5284 13.4653 18.5491C14.0517 18.5659 14.6394 18.553 15.2858 18.553C15.2858 13.3498 15.2858 8.20874 15.2858 2.96154C14.7908 2.96154 14.3012 2.96154 13.8103 2.96154C12.6062 2.96284 11.4007 2.95766 10.1966 2.96672C9.04429 2.97579 8.48382 3.49235 8.47427 4.59539C8.45655 6.51535 8.46609 8.4366 8.46336 10.3566C8.46336 10.5469 8.46336 10.7372 8.46336 10.9689C5.7824 10.9689 3.16143 10.9689 0.454553 10.9689C0.454553 10.3695 0.44637 9.79339 0.455916 9.21856C0.481826 7.62356 0.357732 6.00914 0.578646 4.43873C0.935927 1.9077 3.22825 0.0447085 5.92149 0.0278782C12.6703 -0.0161398 19.4204 0.00198545 26.1706 0.0149319C27.4797 0.0175212 28.1983 0.771005 28.4943 1.96078C28.7029 2.8023 29.1734 3.59074 29.5688 4.38436C30.3461 5.94311 31.1125 7.50834 31.9607 9.03084C32.4284 9.87107 32.5293 10.6789 32.2607 11.5774C31.9211 12.7167 31.6266 13.8702 31.317 15.0173C31.2789 15.1571 31.2611 15.3021 31.238 15.4199C32.2539 15.3759 33.2385 15.2671 34.2148 15.3099C35.359 15.3604 35.7162 15.952 35.3221 17.024C33.9694 16.5359 32.5893 16.4621 31.2298 16.9864C30.9802 17.0822 30.7048 17.3308 30.6202 17.5664C29.9411 19.4579 28.5106 20.5454 26.4119 20.5597C21.6391 20.5894 16.8676 20.5597 12.0948 20.5804C11.6134 20.583 11.5534 20.337 11.4402 20.0198C10.678 17.8836 8.86428 16.5838 6.64151 16.6926C4.50328 16.7974 3.13688 17.9704 2.36505 19.801C2.17277 20.258 2.09504 20.6891 1.38321 20.5428C0.56501 20.3745 0.0331798 19.9706 0.00454281 19.3336C-0.00500285 19.1226 -0.00909387 18.874 0.0945448 18.7005C0.550009 17.9393 0.450462 17.1159 0.451825 16.3029C0.458643 15.0522 0.455916 13.8029 0.455916 12.4772ZM17.1881 2.98873C17.1881 6.32374 17.1881 9.59013 17.1881 12.9329C17.4758 12.9329 17.7186 12.9329 17.9613 12.9329C18.6649 12.9342 19.3686 12.9238 20.0723 12.9433C20.6504 12.9601 20.9341 13.3291 20.9873 13.8184C21.0418 14.3233 20.765 14.6884 20.2413 14.8373C20.03 14.8969 19.8022 14.9021 19.5527 14.937C19.5527 16.1488 19.5527 17.3399 19.5527 18.5801C20.6682 18.5801 21.7318 18.5866 22.7955 18.5789C23.9219 18.5698 24.4633 18.0571 24.4633 16.9916C24.466 12.529 24.4619 8.06762 24.4578 3.60498C24.4578 3.40043 24.4305 3.19587 24.4155 2.99003C21.9759 2.98873 19.6195 2.98873 17.1881 2.98873ZM30.9216 9.83223C30.8725 9.66522 30.8616 9.57977 30.8248 9.50727C29.7379 7.3724 28.6306 5.24789 27.5724 3.10137C27.301 2.55114 26.9492 2.43074 26.3478 2.62494C26.3478 4.50994 26.2851 6.4053 26.3751 8.29289C26.4188 9.21209 27.1606 9.77526 28.1138 9.82316C29.0165 9.86848 29.9261 9.83223 30.9216 9.83223Z" fill="#1FB703"/>
<path d="M10.1304 21.2072C10.1386 22.9653 8.66311 24.4179 6.85489 24.4334C4.98258 24.449 3.52891 23.0805 3.52345 21.2965C3.518 19.5008 5.00303 18.056 6.85353 18.0586C8.63447 18.0599 10.1236 19.4905 10.1304 21.2072ZM6.83853 19.9682C6.12396 19.9773 5.53622 20.5327 5.5335 21.2033C5.52941 21.8856 6.09942 22.4203 6.83307 22.4241C7.56672 22.428 8.12174 21.9024 8.1231 21.202C8.12583 20.5081 7.55581 19.9591 6.83853 19.9682Z" fill="#1FB703"/>
<path d="M36.5644 21.2082C36.5767 22.9314 35.2376 24.2934 33.4144 24.4125C31.7725 24.5186 30.2193 23.3043 29.952 21.7067C29.877 21.2587 29.9793 20.8975 30.3134 20.5259C30.7798 20.0068 31.1084 19.3789 31.5461 18.8338C31.7616 18.5671 32.0562 18.2668 32.3739 18.1788C34.5121 17.5936 36.5494 19.0863 36.5644 21.2082ZM34.5489 21.2276C34.5544 20.5156 34.0239 19.977 33.3039 19.9615C32.6166 19.9472 31.988 20.5117 31.9621 21.1681C31.9361 21.8374 32.5062 22.3902 33.2398 22.4097C33.9939 22.4291 34.5421 21.9332 34.5489 21.2276Z" fill="#1FB703"/>
</svg>
